<svg xmlns="http://www.w3.org/2000/svg" viewBox="0 0 32 32"><defs><style>.cls-1{fill:#fff;}.cls-2{fill:#1d1d1b;stroke:#1d1d1b;stroke-miterlimit:10;}</style></defs><g id="Calque_2" data-name="Calque 2"><g id="Calque_1-2" data-name="Calque 1"><circle class="cls-1" cx="16" cy="16" r="16"/><path class="cls-2" d="M9.21,17.47c.19,0,.29.23.29.69a2.61,2.61,0,0,1-1,2,3.52,3.52,0,0,1-4,.49,3.33,3.33,0,0,1-1.7-3.2,6.37,6.37,0,0,1,.88-3.16A8.67,8.67,0,0,1,7.11,10.9a9.25,9.25,0,0,1,4.42-1.23,4.46,4.46,0,0,1,2.58.69,2.6,2.6,0,0,1,1.13,2.3q0,2-1.89,6.1a26.74,26.74,0,0,0-1.88,4.7c0,.11,0,.14.1.1a66,66,0,0,0,5-5.68,47,47,0,0,1,6.19-6.58,25.14,25.14,0,0,1,2.58-1.73A4.36,4.36,0,0,1,27.46,9a2.63,2.63,0,0,1,.44,0,.53.53,0,0,1,.56.58c0,.18-.06.28-.19.28L28,9.78a1.54,1.54,0,0,0-.46-.09q-2.93,0-7.89,5.29c-1.24,1.33-2.75,3.11-4.53,5.36A26.86,26.86,0,0,1,12,24a10.07,10.07,0,0,1-1.9,1c-.05,0-.07-.07-.07-.21a13.88,13.88,0,0,1,1.18-3.51c.32-.73.78-1.82,1.4-3.27l1-2.82a7.33,7.33,0,0,0,.5-2.07,2.82,2.82,0,0,0-.83-2.2,3.5,3.5,0,0,0-2.41-.75,6.55,6.55,0,0,0-3.37,1.1,8.19,8.19,0,0,0-2.91,3.1,7.09,7.09,0,0,0-1,3.12,3.4,3.4,0,0,0,.52,2,2.68,2.68,0,0,0,2.28,1.19,2.87,2.87,0,0,0,1.93-.72,2.3,2.3,0,0,0,.83-1.83,1.38,1.38,0,0,0,0-.42C9,17.53,9.07,17.47,9.21,17.47Z"/></g></g></svg>