<svg xmlns="http://www.w3.org/2000/svg" viewBox="0 0 425.3 224.95"><defs><style>.cls-1,.cls-2{fill:#1d1d1b;}.cls-1{stroke:#1d1d1b;stroke-miterlimit:10;stroke-width:3px;}</style></defs><g id="Calque_2" data-name="Calque 2"><g id="Calque_1-2" data-name="Calque 1"><path class="cls-1" d="M96.88,109.45q2.41,0,2.42,5.7,0,8.64-8.55,16.15a29.06,29.06,0,0,1-33.26,4.06q-14-7.61-14-26.43a52.28,52.28,0,0,1,7.26-26.09A71.9,71.9,0,0,1,79.52,55.2Q98.27,45,116.06,45q13,0,21.25,5.7,9.33,6.39,9.33,19,0,16.07-15.55,50.36t-15.55,38.79c0,.92.29,1.21.86.86q4.5-2.94,41.21-46.9t51-54.34A204,204,0,0,1,230,44.23a35.78,35.78,0,0,1,17.54-4.75,28.81,28.81,0,0,1,3.62.17q4.66.36,4.67,4.84,0,2.25-1.56,2.25a24.83,24.83,0,0,1-2.41-.78,12,12,0,0,0-3.81-.78q-24.18,0-65.13,43.71-15.37,16.41-37.4,44.23t-26,30.06q-14,7.94-15.72,7.94c-.34,0-.52-.58-.52-1.73q0-5.7,9.68-29,4-9,11.57-26.95l8-23.32q4.14-11.75,4.15-17.1,0-11.93-6.91-18.14t-19.87-6.22q-13,0-27.81,9.15Q66,68.16,58,83.36T50.07,109.1q0,10.55,4.31,16.59,7.09,9.84,18.83,9.84a23.61,23.61,0,0,0,15.9-6A19.1,19.1,0,0,0,96,114.46a13.27,13.27,0,0,0-.43-3.46C95.3,110,95.73,109.45,96.88,109.45Z"/><path class="cls-1" d="M174.79,161.1a10.68,10.68,0,0,1-3.45-.52q-11.06-3.11-11.06-12.43,0-12.1,15.2-28t27.3-15.89a9.62,9.62,0,0,1,6.48,2.15,6.72,6.72,0,0,1,2.5,5.27q0,9.68-14.59,18.49T173.41,139a7.39,7.39,0,0,1-2.42-.35,20.09,20.09,0,0,0-2.59,9.85q0,9,8.55,9t22.2-11.57a109.79,109.79,0,0,0,18-18c1-1.38,1.93-2.07,2.68-2.07s1.12.35,1.12,1a5.79,5.79,0,0,1-1.38,2.93,106.13,106.13,0,0,1-22.46,21.77Q183.94,161.11,174.79,161.1Zm32.65-49.75c0-1.38-1.46-2.08-4.4-2.08s-7.11,2.25-12.53,6.74a77.33,77.33,0,0,0-16.93,18.83,6.85,6.85,0,0,0,2.25.35q6.57,0,17.53-7T207.1,112.9A4.19,4.19,0,0,0,207.44,111.35Z"/><path class="cls-1" d="M267.22,106.51q19.33-31.44,26.95-31.44a10.75,10.75,0,0,1,3.36.78c1.44.52,2.16,1.29,2.16,2.33a4.63,4.63,0,0,1-.86,2.24Q285,97.35,278.27,105.82q-20.38,25.74-22.46,37a23.41,23.41,0,0,0-.51,4.84c0,5.18,2.12,7.77,6.39,7.77q12.78,0,33.34-23.67a6.64,6.64,0,0,1,2.94-2c.8-.18,1.2,0,1.2.6a3.44,3.44,0,0,1-1,2.07q-20,24-35.59,26.78a12.55,12.55,0,0,1-2.42.18q-5.35,0-8-3.72a13.43,13.43,0,0,1-2.68-8,34.93,34.93,0,0,1,1.9-10.71l-14,14q-9.51,8.81-15,8.81a13.91,13.91,0,0,1-9.06-2.94,10.8,10.8,0,0,1-4.32-9.15q0-12.62,17.62-30.15T258.92,100c3.23,0,5.47.86,6.74,2.59A13.08,13.08,0,0,1,267.22,106.51Zm-51,43.19q0,6.23,4.32,6.22,7.43,0,24.71-20.39,3.1-3.61,20.72-27.12a4.39,4.39,0,0,0-4.14-2.07q-10.71,0-28.16,16.32T216.25,149.7Z"/><path class="cls-1" d="M348.76,106.17l2.41-.52a4.65,4.65,0,0,1,3.55,1.38,3.85,3.85,0,0,1,1.29,2.16,10.29,10.29,0,0,1-.17,1.73q-.18.94-5,8.72-6,10.55-10,17.79-14,26.1-21.42,35.76-15.9,21.08-30.23,21.08a11.3,11.3,0,0,1-8.73-4.23,14.77,14.77,0,0,1-3.89-9.42q.52-2.07,1.56-2.07c.34,0,.63.4.86,1.21a13,13,0,0,0,3.29,6.91,7,7,0,0,0,4.83,2.42q9.85,0,21.08-13,7.43-8.64,16.41-25.22l8.64-17.1-13,13.13q-12.44,11.91-17,11.92a14.33,14.33,0,0,1-8.73-3.11,10.86,10.86,0,0,1-4.66-9.16q0-12.61,17.7-30.06t32.22-17.45q5.88,0,7.6,3.8c.35.93.64,1.7.87,2.34S348.64,106.17,348.76,106.17ZM297.1,148.66q0,6.22,4.32,6.22,10,0,27.3-21.94L347,107.72q-1-2.41-4.32-2.42-10.71,0-28.16,16.5T297.1,148.66Z"/><path class="cls-1" d="M363.78,161.1a10.77,10.77,0,0,1-3.45-.52q-11.06-3.11-11.06-12.43,0-12.1,15.21-28t27.29-15.89a9.62,9.62,0,0,1,6.48,2.15,6.73,6.73,0,0,1,2.51,5.27q0,9.68-14.6,18.49T362.4,139a7.44,7.44,0,0,1-2.42-.35,20.09,20.09,0,0,0-2.59,9.85q0,9,8.56,9t22.19-11.57a109.79,109.79,0,0,0,18-18c1-1.38,1.93-2.07,2.68-2.07s1.12.35,1.12,1a5.79,5.79,0,0,1-1.38,2.93,106.13,106.13,0,0,1-22.46,21.77Q372.95,161.11,363.78,161.1Zm32.66-49.75c0-1.38-1.47-2.08-4.41-2.08s-7.11,2.25-12.52,6.74a77.12,77.12,0,0,0-16.93,18.83,6.75,6.75,0,0,0,2.24.35q6.57,0,17.54-7t13.73-15.29A4.22,4.22,0,0,0,396.44,111.35Z"/><path class="cls-2" d="M416.42,80.22a108.14,108.14,0,0,0-22.64-18.88,186.51,186.51,0,0,0-26-13.78A339.53,339.53,0,0,0,312,29.14c-2.37-.61-4.76-1.16-7.11-1.84s-4.74-1.26-7.11-1.92l-7.13-1.81-7.18-1.65q-14.39-3.2-28.93-5.7c-4.85-.83-9.71-1.64-14.54-2.35s-9.69-1.32-14.56-1.82q-14.58-1.55-29.26-1.93a339.53,339.53,0,0,0-58.42,3.41A264.12,264.12,0,0,0,81.38,28,184.33,184.33,0,0,0,55.26,40.44a126.29,126.29,0,0,0-23,16.82A76.68,76.68,0,0,0,15.36,79.31,54.88,54.88,0,0,0,11,92.13a52.53,52.53,0,0,0-.86,13.5,57.06,57.06,0,0,0,.83,6.75A60.75,60.75,0,0,0,12.64,119a65.6,65.6,0,0,0,5.53,12.65,93.85,93.85,0,0,0,17.56,22,147.6,147.6,0,0,0,22.78,17.47A209.65,209.65,0,0,0,84.1,184.75a307.55,307.55,0,0,0,55.41,18.48,426.92,426.92,0,0,0,58,9.39,544.79,544.79,0,0,0,58.84,2.27q14.73-.19,29.42-1.22c9.78-.7,19.54-1.64,29.22-3.12,4.84-.7,9.72-1.15,14.57-1.84s9.68-1.42,14.51-2.26a278.34,278.34,0,0,0,28.6-6.67,186.59,186.59,0,0,0,27.56-10.23,140,140,0,0,0,13-6.94A110.2,110.2,0,0,0,425.3,174a109.54,109.54,0,0,1-11.25,9.8,136,136,0,0,1-12.46,8.35,191.68,191.68,0,0,1-27.13,12.95,266.4,266.4,0,0,1-28.66,9.23c-4.86,1.27-9.74,2.46-14.65,3.53-2.45.52-4.9,1.07-7.37,1.53s-4.93.95-7.43,1.24c-10,1.22-19.92,2.28-29.91,3s-20,1.11-30,1.25a558,558,0,0,1-59.93-2.31A437.51,437.51,0,0,1,137.2,213,317,317,0,0,1,80,193.86a217.68,217.68,0,0,1-26.81-14.32,157.08,157.08,0,0,1-24.32-18.66,103.93,103.93,0,0,1-19.4-24.32A75.18,75.18,0,0,1,3.1,122a70.69,70.69,0,0,1-2-7.77,66.9,66.9,0,0,1-1-8,62.25,62.25,0,0,1,1-16.1A64.59,64.59,0,0,1,6.37,74.93a86.62,86.62,0,0,1,19-25A136.61,136.61,0,0,1,50.24,31.79,193.55,193.55,0,0,1,77.77,18.7,275,275,0,0,1,136.3,3.64,348,348,0,0,1,196.45.13a393.71,393.71,0,0,1,59.81,6.24Q271,8.92,285.65,12.16c4.88,1.11,9.75,2.26,14.62,3.41S310,18,314.76,19.52c19,6.25,37.8,13.59,55.45,23.17A190.65,190.65,0,0,1,395.45,59C403.29,65.19,410.65,72.12,416.42,80.22Z"/></g></g></svg>