<svg xmlns="http://www.w3.org/2000/svg" viewBox="0 0 425.34 224.96"><defs><style>.cls-1{fill:#fff;}</style></defs><g id="Calque_2" data-name="Calque 2"><g id="Calque_1-2" data-name="Calque 1"><g id="Calque_2-2" data-name="Calque 2"><g id="Calque_1-2-2" data-name="Calque 1-2"><path class="cls-1" d="M96.92,109.46q2.42,0,2.42,5.7,0,8.64-8.55,16.15a29.06,29.06,0,0,1-33.26,4.06q-14-7.6-14-26.43a52.33,52.33,0,0,1,7.26-26.09A72,72,0,0,1,79.56,55.21Q98.31,45,116.1,45q13,0,21.25,5.7,9.33,6.39,9.33,19,0,16.07-15.55,50.36t-15.55,38.79c0,.92.29,1.21.86.86q4.5-2.94,41.21-46.9t51-54.34A204.74,204.74,0,0,1,230,44.24a35.79,35.79,0,0,1,17.54-4.75,29.15,29.15,0,0,1,3.62.17q4.67.36,4.67,4.84,0,2.25-1.56,2.25c-.81-.22-1.62-.48-2.41-.78a11.82,11.82,0,0,0-3.81-.78q-24.18,0-65.13,43.71-15.36,16.41-37.4,44.23t-26,30.06q-14,7.94-15.72,7.94c-.34,0-.52-.58-.52-1.73q0-5.7,9.68-29,4-9,11.57-26.95l8-23.32q4.14-11.75,4.15-17.1,0-11.93-6.91-18.14t-19.87-6.22q-13,0-27.81,9.15Q66.05,68.17,58,83.37t-7.93,25.74q0,10.55,4.31,16.59,7.09,9.84,18.83,9.84a23.64,23.64,0,0,0,15.9-6A19.08,19.08,0,0,0,96,114.47a13,13,0,0,0-.43-3.46C95.34,110,95.77,109.46,96.92,109.46Z"/><path class="cls-1" d="M174.83,161.11a10.66,10.66,0,0,1-3.45-.52q-11.06-3.1-11.06-12.43,0-12.1,15.2-28t27.3-15.89a9.64,9.64,0,0,1,6.48,2.15,6.66,6.66,0,0,1,2.5,5.27q0,9.68-14.59,18.49T173.45,139a7.39,7.39,0,0,1-2.42-.35,20.24,20.24,0,0,0-2.59,9.85q0,9,8.55,9t22.2-11.57a109.47,109.47,0,0,0,18-18c1-1.38,1.93-2.07,2.68-2.07s1.12.35,1.12,1a5.78,5.78,0,0,1-1.38,2.93,106.11,106.11,0,0,1-22.46,21.77Q184,161.13,174.83,161.11Zm32.65-49.75c0-1.38-1.46-2.08-4.4-2.08S196,111.53,190.55,116a77.32,77.32,0,0,0-16.93,18.83,6.92,6.92,0,0,0,2.25.35q6.57,0,17.53-7t13.74-15.29A4.15,4.15,0,0,0,207.48,111.36Z"/><path class="cls-1" d="M267.26,106.52q19.33-31.44,26.95-31.44a10.76,10.76,0,0,1,3.36.78c1.44.52,2.16,1.29,2.16,2.33a4.57,4.57,0,0,1-.86,2.24Q285,97.37,278.31,105.83q-20.37,25.74-22.46,37a23.82,23.82,0,0,0-.51,4.84c0,5.18,2.12,7.77,6.39,7.77q12.78,0,33.34-23.67a6.7,6.7,0,0,1,2.94-2c.8-.18,1.2,0,1.2.6a3.41,3.41,0,0,1-1,2.07q-20,24-35.59,26.78a12.28,12.28,0,0,1-2.42.18q-5.34,0-8-3.72a13.41,13.41,0,0,1-2.68-8,34.88,34.88,0,0,1,1.9-10.71l-14,14q-9.51,8.81-15,8.81a13.87,13.87,0,0,1-9.06-2.94,10.83,10.83,0,0,1-4.32-9.15q0-12.62,17.62-30.15T259,100c3.23,0,5.47.86,6.74,2.59A12.92,12.92,0,0,1,267.26,106.52Zm-51,43.19c0,4.15,1.44,6.23,4.32,6.22q7.44,0,24.71-20.39,3.11-3.61,20.72-27.12a4.39,4.39,0,0,0-4.14-2.07q-10.71,0-28.16,16.32t-17.42,27Z"/><path class="cls-1" d="M348.8,106.18l2.41-.52a4.62,4.62,0,0,1,3.55,1.38,3.85,3.85,0,0,1,1.29,2.16,9.14,9.14,0,0,1-.17,1.73q-.18.94-5,8.72-6,10.54-10,17.79-14,26.1-21.42,35.76-15.9,21.08-30.23,21.08a11.33,11.33,0,0,1-8.73-4.23,14.8,14.8,0,0,1-3.89-9.42q.52-2.07,1.56-2.07c.34,0,.63.4.86,1.21a13.05,13.05,0,0,0,3.29,6.91,7,7,0,0,0,4.83,2.42q9.86,0,21.08-13,7.44-8.64,16.41-25.22l8.64-17.1-13,13.13q-12.43,11.91-17,11.92a14.31,14.31,0,0,1-8.73-3.11,10.87,10.87,0,0,1-4.66-9.16q0-12.62,17.7-30.06t32.22-17.45c3.92,0,6.46,1.27,7.6,3.8.35.93.64,1.7.87,2.34S348.68,106.18,348.8,106.18Zm-51.66,42.49q0,6.22,4.32,6.22,10,0,27.3-21.94L347,107.73c-.66-1.61-2.1-2.41-4.32-2.42q-10.71,0-28.16,16.5T297.14,148.67Z"/><path class="cls-1" d="M363.82,161.11a10.66,10.66,0,0,1-3.45-.52q-11.06-3.1-11.06-12.43,0-12.1,15.21-28t27.29-15.89a9.64,9.64,0,0,1,6.48,2.15,6.7,6.7,0,0,1,2.51,5.27q0,9.68-14.6,18.49T362.44,139a7.39,7.39,0,0,1-2.42-.35,20.24,20.24,0,0,0-2.59,9.85q0,9,8.56,9t22.19-11.57a109.47,109.47,0,0,0,18-18c1-1.38,1.93-2.07,2.68-2.07s1.12.35,1.12,1a5.78,5.78,0,0,1-1.38,2.93,106.11,106.11,0,0,1-22.46,21.77Q373,161.13,363.82,161.11Zm32.66-49.75c0-1.38-1.47-2.08-4.41-2.08S385,111.53,379.55,116a77.14,77.14,0,0,0-16.93,18.83,6.86,6.86,0,0,0,2.24.35q6.57,0,17.54-7t13.73-15.29A4,4,0,0,0,396.48,111.36Z"/><path class="cls-1" d="M416.46,80.23a107.88,107.88,0,0,0-22.64-18.88,186.22,186.22,0,0,0-26-13.78A339.63,339.63,0,0,0,312,29.15c-2.37-.61-4.76-1.16-7.11-1.84s-4.74-1.26-7.11-1.92l-7.13-1.81-7.18-1.65q-14.38-3.19-28.93-5.7c-4.85-.83-9.71-1.64-14.54-2.35s-9.69-1.32-14.56-1.82q-14.58-1.55-29.26-1.93a338.82,338.82,0,0,0-58.42,3.41A263.88,263.88,0,0,0,81.42,28,185.38,185.38,0,0,0,55.3,40.45a126.38,126.38,0,0,0-23,16.82,76.74,76.74,0,0,0-16.9,22A55.27,55.27,0,0,0,11,92.14a53.13,53.13,0,0,0-.86,13.5,59,59,0,0,0,.83,6.75A62.24,62.24,0,0,0,12.68,119a66.19,66.19,0,0,0,5.53,12.65,94.27,94.27,0,0,0,17.56,22,147.88,147.88,0,0,0,22.78,17.47,210.47,210.47,0,0,0,25.59,13.63,308.33,308.33,0,0,0,55.41,18.48,426.26,426.26,0,0,0,58,9.39,545.18,545.18,0,0,0,58.84,2.27q14.73-.19,29.42-1.22c9.78-.7,19.54-1.64,29.22-3.12,4.84-.7,9.72-1.15,14.57-1.84s9.68-1.42,14.51-2.26a277.12,277.12,0,0,0,28.6-6.67,186.47,186.47,0,0,0,27.56-10.23,138.37,138.37,0,0,0,13-6.94A109.18,109.18,0,0,0,425.34,174a109.23,109.23,0,0,1-11.25,9.8,134,134,0,0,1-12.46,8.35,191.63,191.63,0,0,1-27.13,13,266.4,266.4,0,0,1-28.66,9.23c-4.86,1.27-9.74,2.46-14.65,3.53-2.45.52-4.9,1.07-7.37,1.53s-4.93.95-7.43,1.24c-10,1.22-19.92,2.28-29.91,3s-20,1.11-30,1.25a557.68,557.68,0,0,1-59.93-2.31A437.4,437.4,0,0,1,137.24,213,317.66,317.66,0,0,1,80,193.87a218.12,218.12,0,0,1-26.81-14.32,157.14,157.14,0,0,1-24.32-18.66,104.08,104.08,0,0,1-19.4-24.32A75.73,75.73,0,0,1,3.14,122a71.39,71.39,0,0,1-2-7.77,69.38,69.38,0,0,1-1-8,62.53,62.53,0,0,1,1-16.1,64.89,64.89,0,0,1,5.27-15.2,86.8,86.8,0,0,1,19-25A137,137,0,0,1,50.28,31.8,193.71,193.71,0,0,1,77.81,18.71,275.14,275.14,0,0,1,136.34,3.65,347.81,347.81,0,0,1,196.49.14,393.5,393.5,0,0,1,256.3,6.38Q271,8.93,285.69,12.17c4.88,1.11,9.75,2.26,14.62,3.41s9.73,2.43,14.49,4c19,6.25,37.8,13.59,55.45,23.17A190.36,190.36,0,0,1,395.49,59C403.33,65.2,410.69,72.13,416.46,80.23Z"/></g></g></g></g></svg>